<?xml version="1.0"?>
<svg width="700" height="700" xmlns="http://www.w3.org/2000/svg" xmlns:svg="http://www.w3.org/2000/svg" version="1.1">

 <g class="layer">
  <title>Layer 1</title>
  <g id="svg_23">
   <path d="m538.48,0l0,38.89l-161.52,0l0,38.89l-161.52,0l0,388.87l-53.84,0l0,38.89l-107.68,0l0,38.89l-53.84,0l0,116.66l53.84,0l0,38.89l107.68,0l0,-38.89l53.84,0l0,-38.89l53.84,0l0,-427.75l107.68,0l0,-38.89l161.52,0l0,-38.89l107.68,0l0,233.32l-53.84,0l0,38.89l-107.68,0l0,38.89l-53.84,0l0,116.66l53.84,0l0,38.89l107.68,0l0,-38.89l53.84,0l0,-38.89l53.84,0l0,-505.53l-161.52,0z" id="svg_24"/>
  </g>
 </g>
</svg>