<?xml version="1.0"?>
<svg width="700" height="700" xmlns="http://www.w3.org/2000/svg" xmlns:svg="http://www.w3.org/2000/svg" version="1.1">
 <g class="layer">
  <title>Layer 1</title>
  <g id="svg_24">
   <path d="m388.89,77.78l77.77,0l0,77.78l-77.77,0l0,-77.78z" id="svg_25"/>
   <path d="m466.66,311.11l0,77.78l77.77,0l0,-233.33l-77.77,0l0,155.55z" id="svg_26"/>
   <path d="m388.89,388.89l77.77,0l0,77.78l-77.77,0l0,-77.78z" id="svg_27"/>
   <path d="m466.66,466.66l77.77,0l0,77.78l-77.77,0l0,-77.78z" id="svg_28"/>
   <path d="m544.44,544.44l77.77,0l0,77.78l-77.77,0l0,-77.78z" id="svg_29"/>
   <path d="m622.21,622.21l77.77,0l0,77.78l-77.77,0l0,-77.78z" id="svg_30"/>
   <path d="m77.79,233.34l0,-77.78l-77.77,0l0,233.33l77.77,0l0,-155.55z" id="svg_31"/>
   <path d="m77.79,388.89l77.77,0l0,77.78l-77.77,0l0,-77.78z" id="svg_32"/>
   <path d="m311.11,77.78l77.77,0l0,-77.78l-233.32,0l0,77.78l155.55,0z" id="svg_33"/>
   <path d="m233.34,466.66l-77.77,0l0,77.78l233.32,0l0,-77.78l-155.55,0z" id="svg_34"/>
   <path d="m77.79,77.78l77.77,0l0,77.78l-77.77,0l0,-77.78z" id="svg_35"/>
  </g>
 </g>
</svg>